<?xml version="1.0" encoding="UTF-8" standalone="no"?>
<!DOCTYPE svg PUBLIC "-//W3C//DTD SVG 1.1//EN"
 "http://www.w3.org/Graphics/SVG/1.1/DTD/svg11.dtd">
<!-- Generated by graphviz version 2.38.0 (20140413.2041)
 -->
<!-- Title: %3 Pages: 1 -->
<svg width="428pt" height="311pt"
 viewBox="0.00 0.00 428.00 311.00" xmlns="http://www.w3.org/2000/svg" xmlns:xlink="http://www.w3.org/1999/xlink">
<g id="graph0" class="graph" transform="scale(1 1) rotate(0) translate(4 307)">
<title>%3</title>
<polygon fill="white" stroke="none" points="-4,4 -4,-307 424,-307 424,4 -4,4"/>
<g id="clust1" class="cluster"><title>cluster_setup</title>
<path fill="none" stroke="black" stroke-dasharray="5,2" d="M20,-224C20,-224 202,-224 202,-224 208,-224 214,-230 214,-236 214,-236 214,-283 214,-283 214,-289 208,-295 202,-295 202,-295 20,-295 20,-295 14,-295 8,-289 8,-283 8,-283 8,-236 8,-236 8,-230 14,-224 20,-224"/>
<text text-anchor="start" x="90.5" y="-284" font-family="Helvetica,sans-Serif" font-size="10.00"> </text>
<text text-anchor="start" x="94.5" y="-284" font-family="Helvetica,sans-Serif" font-weight="bold" font-size="10.00">Setup</text>
<text text-anchor="start" x="127.5" y="-284" font-family="Helvetica,sans-Serif" font-size="10.00"> </text>
</g>
<g id="clust2" class="cluster"><title>cluster_process</title>
<path fill="none" stroke="black" stroke-dasharray="5,2" d="M172,-116C172,-116 399,-116 399,-116 405,-116 411,-122 411,-128 411,-128 411,-175 411,-175 411,-181 405,-187 399,-187 399,-187 172,-187 172,-187 166,-187 160,-181 160,-175 160,-175 160,-128 160,-128 160,-122 166,-116 172,-116"/>
<text text-anchor="start" x="259.5" y="-176" font-family="Helvetica,sans-Serif" font-size="10.00"> </text>
<text text-anchor="start" x="263.5" y="-176" font-family="Helvetica,sans-Serif" font-weight="bold" font-size="10.00">Process</text>
<text text-anchor="start" x="307.5" y="-176" font-family="Helvetica,sans-Serif" font-size="10.00"> </text>
</g>
<g id="clust3" class="cluster"><title>cluster_report</title>
<path fill="none" stroke="black" stroke-dasharray="5,2" d="M362,-8C362,-8 400,-8 400,-8 406,-8 412,-14 412,-20 412,-20 412,-67 412,-67 412,-73 406,-79 400,-79 400,-79 362,-79 362,-79 356,-79 350,-73 350,-67 350,-67 350,-20 350,-20 350,-14 356,-8 362,-8"/>
<text text-anchor="start" x="358" y="-68" font-family="Helvetica,sans-Serif" font-size="10.00"> </text>
<text text-anchor="start" x="362" y="-68" font-family="Helvetica,sans-Serif" font-weight="bold" font-size="10.00">Report</text>
<text text-anchor="start" x="400" y="-68" font-family="Helvetica,sans-Serif" font-size="10.00"> </text>
</g>
<!-- t4 -->
<g id="node1" class="node"><title>t4</title>
<path fill="#66ff88" stroke="black" stroke-dasharray="1,5" d="M193.5,-268C193.5,-268 180.5,-268 180.5,-268 174.5,-268 168.5,-262 168.5,-256 168.5,-256 168.5,-244 168.5,-244 168.5,-238 174.5,-232 180.5,-232 180.5,-232 193.5,-232 193.5,-232 199.5,-232 205.5,-238 205.5,-244 205.5,-244 205.5,-256 205.5,-256 205.5,-262 199.5,-268 193.5,-268"/>
<text text-anchor="start" x="176.5" y="-248.5" font-family="Helvetica,sans-Serif" font-size="10.00"> </text>
<text text-anchor="start" x="180.5" y="-248.5" font-family="Helvetica,sans-Serif" font-weight="bold" font-size="10.00">T4</text>
<text text-anchor="start" x="193.5" y="-248.5" font-family="Helvetica,sans-Serif" font-size="10.00"> </text>
</g>
<!-- t5 -->
<g id="node11" class="node"><title>t5</title>
<path fill="#ff8888" stroke="black" stroke-dasharray="1,5" d="M193.5,-160C193.5,-160 180.5,-160 180.5,-160 174.5,-160 168.5,-154 168.5,-148 168.5,-148 168.5,-136 168.5,-136 168.5,-130 174.5,-124 180.5,-124 180.5,-124 193.5,-124 193.5,-124 199.5,-124 205.5,-130 205.5,-136 205.5,-136 205.5,-148 205.5,-148 205.5,-154 199.5,-160 193.5,-160"/>
<text text-anchor="start" x="176.5" y="-140.5" font-family="Helvetica,sans-Serif" font-size="10.00"> </text>
<text text-anchor="start" x="180.5" y="-140.5" font-family="Helvetica,sans-Serif" font-weight="bold" font-size="10.00">T5</text>
<text text-anchor="start" x="193.5" y="-140.5" font-family="Helvetica,sans-Serif" font-size="10.00"> </text>
</g>
<!-- t4&#45;&gt;t5 -->
<g id="edge1" class="edge"><title>t4&#45;&gt;t5</title>
<path fill="none" stroke="black" d="M187,-224.244C187,-216.048 187,-206.58 187,-197.066"/>
<polygon fill="black" stroke="black" points="190.5,-196.93 187,-186.931 183.5,-196.931 190.5,-196.93"/>
</g>
<!-- t3 -->
<g id="node2" class="node"><title>t3</title>
<path fill="#66aaff" stroke="black" stroke-dasharray="1,5" d="M155.5,-268C155.5,-268 142.5,-268 142.5,-268 136.5,-268 130.5,-262 130.5,-256 130.5,-256 130.5,-244 130.5,-244 130.5,-238 136.5,-232 142.5,-232 142.5,-232 155.5,-232 155.5,-232 161.5,-232 167.5,-238 167.5,-244 167.5,-244 167.5,-256 167.5,-256 167.5,-262 161.5,-268 155.5,-268"/>
<text text-anchor="start" x="138.5" y="-248.5" font-family="Helvetica,sans-Serif" font-size="10.00"> </text>
<text text-anchor="start" x="142.5" y="-248.5" font-family="Helvetica,sans-Serif" font-weight="bold" font-size="10.00">T3</text>
<text text-anchor="start" x="155.5" y="-248.5" font-family="Helvetica,sans-Serif" font-size="10.00"> </text>
</g>
<!-- t2 -->
<g id="node3" class="node"><title>t2</title>
<path fill="#66aaff" stroke="black" stroke-dasharray="1,5" d="M117.5,-268C117.5,-268 104.5,-268 104.5,-268 98.5,-268 92.5,-262 92.5,-256 92.5,-256 92.5,-244 92.5,-244 92.5,-238 98.5,-232 104.5,-232 104.5,-232 117.5,-232 117.5,-232 123.5,-232 129.5,-238 129.5,-244 129.5,-244 129.5,-256 129.5,-256 129.5,-262 123.5,-268 117.5,-268"/>
<text text-anchor="start" x="100.5" y="-248.5" font-family="Helvetica,sans-Serif" font-size="10.00"> </text>
<text text-anchor="start" x="104.5" y="-248.5" font-family="Helvetica,sans-Serif" font-weight="bold" font-size="10.00">T2</text>
<text text-anchor="start" x="117.5" y="-248.5" font-family="Helvetica,sans-Serif" font-size="10.00"> </text>
</g>
<!-- t1 -->
<g id="node4" class="node"><title>t1</title>
<path fill="#ff8888" stroke="black" stroke-dasharray="1,5" d="M79.5,-268C79.5,-268 66.5,-268 66.5,-268 60.5,-268 54.5,-262 54.5,-256 54.5,-256 54.5,-244 54.5,-244 54.5,-238 60.5,-232 66.5,-232 66.5,-232 79.5,-232 79.5,-232 85.5,-232 91.5,-238 91.5,-244 91.5,-244 91.5,-256 91.5,-256 91.5,-262 85.5,-268 79.5,-268"/>
<text text-anchor="start" x="62.5" y="-248.5" font-family="Helvetica,sans-Serif" font-size="10.00"> </text>
<text text-anchor="start" x="66.5" y="-248.5" font-family="Helvetica,sans-Serif" font-weight="bold" font-size="10.00">T1</text>
<text text-anchor="start" x="79.5" y="-248.5" font-family="Helvetica,sans-Serif" font-size="10.00"> </text>
</g>
<!-- t0 -->
<g id="node5" class="node"><title>t0</title>
<path fill="#ffcc44" stroke="black" stroke-dasharray="1,5" d="M41.5,-268C41.5,-268 28.5,-268 28.5,-268 22.5,-268 16.5,-262 16.5,-256 16.5,-256 16.5,-244 16.5,-244 16.5,-238 22.5,-232 28.5,-232 28.5,-232 41.5,-232 41.5,-232 47.5,-232 53.5,-238 53.5,-244 53.5,-244 53.5,-256 53.5,-256 53.5,-262 47.5,-268 41.5,-268"/>
<text text-anchor="start" x="24.5" y="-248.5" font-family="Helvetica,sans-Serif" font-size="10.00"> </text>
<text text-anchor="start" x="28.5" y="-248.5" font-family="Helvetica,sans-Serif" font-weight="bold" font-size="10.00">T0</text>
<text text-anchor="start" x="41.5" y="-248.5" font-family="Helvetica,sans-Serif" font-size="10.00"> </text>
</g>
<!-- t10 -->
<g id="node6" class="node"><title>t10</title>
<path fill="#66ff88" stroke="black" stroke-dasharray="1,5" d="M391,-160C391,-160 371,-160 371,-160 365,-160 359,-154 359,-148 359,-148 359,-136 359,-136 359,-130 365,-124 371,-124 371,-124 391,-124 391,-124 397,-124 403,-130 403,-136 403,-136 403,-148 403,-148 403,-154 397,-160 391,-160"/>
<text text-anchor="start" x="367" y="-140.5" font-family="Helvetica,sans-Serif" font-size="10.00"> </text>
<text text-anchor="start" x="371" y="-140.5" font-family="Helvetica,sans-Serif" font-weight="bold" font-size="10.00">T10</text>
<text text-anchor="start" x="391" y="-140.5" font-family="Helvetica,sans-Serif" font-size="10.00"> </text>
</g>
<!-- t11 -->
<g id="node12" class="node"><title>t11</title>
<path fill="#66ff88" stroke="black" stroke-dasharray="1,5" d="M391,-52C391,-52 371,-52 371,-52 365,-52 359,-46 359,-40 359,-40 359,-28 359,-28 359,-22 365,-16 371,-16 371,-16 391,-16 391,-16 397,-16 403,-22 403,-28 403,-28 403,-40 403,-40 403,-46 397,-52 391,-52"/>
<text text-anchor="start" x="367" y="-32.5" font-family="Helvetica,sans-Serif" font-size="10.00"> </text>
<text text-anchor="start" x="371" y="-32.5" font-family="Helvetica,sans-Serif" font-weight="bold" font-size="10.00">T11</text>
<text text-anchor="start" x="391" y="-32.5" font-family="Helvetica,sans-Serif" font-size="10.00"> </text>
</g>
<!-- t10&#45;&gt;t11 -->
<g id="edge2" class="edge"><title>t10&#45;&gt;t11</title>
<path fill="none" stroke="black" d="M381,-116.244C381,-108.048 381,-98.5799 381,-89.0659"/>
<polygon fill="black" stroke="black" points="384.5,-88.9305 381,-78.9305 377.5,-88.9306 384.5,-88.9305"/>
</g>
<!-- t9 -->
<g id="node7" class="node"><title>t9</title>
<path fill="#66aaff" stroke="black" stroke-dasharray="1,5" d="M345.5,-160C345.5,-160 332.5,-160 332.5,-160 326.5,-160 320.5,-154 320.5,-148 320.5,-148 320.5,-136 320.5,-136 320.5,-130 326.5,-124 332.5,-124 332.5,-124 345.5,-124 345.5,-124 351.5,-124 357.5,-130 357.5,-136 357.5,-136 357.5,-148 357.5,-148 357.5,-154 351.5,-160 345.5,-160"/>
<text text-anchor="start" x="328.5" y="-140.5" font-family="Helvetica,sans-Serif" font-size="10.00"> </text>
<text text-anchor="start" x="332.5" y="-140.5" font-family="Helvetica,sans-Serif" font-weight="bold" font-size="10.00">T9</text>
<text text-anchor="start" x="345.5" y="-140.5" font-family="Helvetica,sans-Serif" font-size="10.00"> </text>
</g>
<!-- t8 -->
<g id="node8" class="node"><title>t8</title>
<path fill="#66aaff" stroke="black" stroke-dasharray="1,5" d="M307.5,-160C307.5,-160 294.5,-160 294.5,-160 288.5,-160 282.5,-154 282.5,-148 282.5,-148 282.5,-136 282.5,-136 282.5,-130 288.5,-124 294.5,-124 294.5,-124 307.5,-124 307.5,-124 313.5,-124 319.5,-130 319.5,-136 319.5,-136 319.5,-148 319.5,-148 319.5,-154 313.5,-160 307.5,-160"/>
<text text-anchor="start" x="290.5" y="-140.5" font-family="Helvetica,sans-Serif" font-size="10.00"> </text>
<text text-anchor="start" x="294.5" y="-140.5" font-family="Helvetica,sans-Serif" font-weight="bold" font-size="10.00">T8</text>
<text text-anchor="start" x="307.5" y="-140.5" font-family="Helvetica,sans-Serif" font-size="10.00"> </text>
</g>
<!-- t7 -->
<g id="node9" class="node"><title>t7</title>
<path fill="#ff8888" stroke="black" stroke-dasharray="1,5" d="M269.5,-160C269.5,-160 256.5,-160 256.5,-160 250.5,-160 244.5,-154 244.5,-148 244.5,-148 244.5,-136 244.5,-136 244.5,-130 250.5,-124 256.5,-124 256.5,-124 269.5,-124 269.5,-124 275.5,-124 281.5,-130 281.5,-136 281.5,-136 281.5,-148 281.5,-148 281.5,-154 275.5,-160 269.5,-160"/>
<text text-anchor="start" x="252.5" y="-140.5" font-family="Helvetica,sans-Serif" font-size="10.00"> </text>
<text text-anchor="start" x="256.5" y="-140.5" font-family="Helvetica,sans-Serif" font-weight="bold" font-size="10.00">T7</text>
<text text-anchor="start" x="269.5" y="-140.5" font-family="Helvetica,sans-Serif" font-size="10.00"> </text>
</g>
<!-- t6 -->
<g id="node10" class="node"><title>t6</title>
<path fill="#ff8888" stroke="black" stroke-dasharray="1,5" d="M231.5,-160C231.5,-160 218.5,-160 218.5,-160 212.5,-160 206.5,-154 206.5,-148 206.5,-148 206.5,-136 206.5,-136 206.5,-130 212.5,-124 218.5,-124 218.5,-124 231.5,-124 231.5,-124 237.5,-124 243.5,-130 243.5,-136 243.5,-136 243.5,-148 243.5,-148 243.5,-154 237.5,-160 231.5,-160"/>
<text text-anchor="start" x="214.5" y="-140.5" font-family="Helvetica,sans-Serif" font-size="10.00"> </text>
<text text-anchor="start" x="218.5" y="-140.5" font-family="Helvetica,sans-Serif" font-weight="bold" font-size="10.00">T6</text>
<text text-anchor="start" x="231.5" y="-140.5" font-family="Helvetica,sans-Serif" font-size="10.00"> </text>
</g>
</g>
</svg>
