<?xml version="1.0" encoding="UTF-8" standalone="no"?>
<!DOCTYPE svg PUBLIC "-//W3C//DTD SVG 1.1//EN"
 "http://www.w3.org/Graphics/SVG/1.1/DTD/svg11.dtd">
<!-- Generated by graphviz version 2.38.0 (20140413.2041)
 -->
<!-- Title: %3 Pages: 1 -->
<svg width="245pt" height="350pt"
 viewBox="0.00 0.00 244.50 350.00" xmlns="http://www.w3.org/2000/svg" xmlns:xlink="http://www.w3.org/1999/xlink">
<g id="graph0" class="graph" transform="scale(1 1) rotate(0) translate(4 346)">
<title>%3</title>
<polygon fill="white" stroke="none" points="-4,4 -4,-346 240.5,-346 240.5,4 -4,4"/>
<g id="clust1" class="cluster"><title>cluster_processing_0</title>
<polygon fill="none" stroke="black" stroke-width="0" points="74.5,-230 74.5,-334 166.5,-334 166.5,-230 74.5,-230"/>
</g>
<g id="clust2" class="cluster"><title>cluster_reporting_0</title>
<polygon fill="none" stroke="black" stroke-width="0" points="12.5,-230 12.5,-282 66.5,-282 66.5,-230 12.5,-230"/>
</g>
<g id="clust3" class="cluster"><title>cluster_web_1</title>
<polygon fill="none" stroke="black" stroke-width="0" points="174.5,-60 174.5,-222 228.5,-222 228.5,-60 174.5,-60"/>
</g>
<g id="clust4" class="cluster"><title>cluster_processing_1</title>
<polygon fill="none" stroke="black" stroke-width="0" points="112.5,-120 112.5,-222 166.5,-222 166.5,-120 112.5,-120"/>
</g>
<g id="clust5" class="cluster"><title>cluster_reporting_1</title>
<polygon fill="none" stroke="black" stroke-width="0" points="9.5,-8 9.5,-112 69.5,-112 69.5,-8 9.5,-8"/>
</g>
<!-- t0_setup -->
<g id="node1" class="node"><title>t0_setup</title>
<path fill="#ffcc44" stroke="black" stroke-dasharray="1,5" d="M25,-214C25,-214 12,-214 12,-214 6,-214 0,-208 0,-202 0,-202 0,-190 0,-190 0,-184 6,-178 12,-178 12,-178 25,-178 25,-178 31,-178 37,-184 37,-190 37,-190 37,-202 37,-202 37,-208 31,-214 25,-214"/>
<text text-anchor="start" x="8" y="-194.5" font-family="Helvetica,sans-Serif" font-size="10.00"> </text>
<text text-anchor="start" x="12" y="-194.5" font-family="Helvetica,sans-Serif" font-weight="bold" font-size="10.00">T0</text>
<text text-anchor="start" x="25" y="-194.5" font-family="Helvetica,sans-Serif" font-size="10.00"> </text>
</g>
<!-- t0 -->
<g id="node2" class="node"><title>t0</title>
<path fill="#ffcc44" stroke="black" d="M25,-164C25,-164 12,-164 12,-164 6,-164 0,-158 0,-152 0,-152 0,-140 0,-140 0,-134 6,-128 12,-128 12,-128 25,-128 25,-128 31,-128 37,-134 37,-140 37,-140 37,-152 37,-152 37,-158 31,-164 25,-164"/>
<text text-anchor="start" x="8" y="-144.5" font-family="Helvetica,sans-Serif" font-size="10.00"> </text>
<text text-anchor="start" x="12" y="-144.5" font-family="Helvetica,sans-Serif" font-weight="bold" font-size="10.00">T0</text>
<text text-anchor="start" x="25" y="-144.5" font-family="Helvetica,sans-Serif" font-size="10.00"> </text>
</g>
<!-- t0_setup&#45;&gt;t0 -->
<!-- t10 -->
<g id="node13" class="node"><title>t10</title>
<path fill="#66ff88" stroke="black" d="M49.5,-104C49.5,-104 29.5,-104 29.5,-104 23.5,-104 17.5,-98 17.5,-92 17.5,-92 17.5,-80 17.5,-80 17.5,-74 23.5,-68 29.5,-68 29.5,-68 49.5,-68 49.5,-68 55.5,-68 61.5,-74 61.5,-80 61.5,-80 61.5,-92 61.5,-92 61.5,-98 55.5,-104 49.5,-104"/>
<text text-anchor="start" x="25.5" y="-84.5" font-family="Helvetica,sans-Serif" font-size="10.00"> </text>
<text text-anchor="start" x="29.5" y="-84.5" font-family="Helvetica,sans-Serif" font-weight="bold" font-size="10.00">T10</text>
<text text-anchor="start" x="49.5" y="-84.5" font-family="Helvetica,sans-Serif" font-size="10.00"> </text>
</g>
<!-- t0&#45;&gt;t10 -->
<g id="edge1" class="edge"><title>t0&#45;&gt;t10</title>
<path fill="none" stroke="black" stroke-width="2" stroke-dasharray="5,2" d="M24.6871,-127.912C26.0845,-124.052 27.6052,-119.852 29.1226,-115.661"/>
<polygon fill="none" stroke="black" stroke-width="2" points="29.1992,-115.45 27.4808,-108.446 33.2845,-104.166 35.0029,-111.17 29.1992,-115.45"/>
</g>
<!-- t1 -->
<g id="node3" class="node"><title>t1</title>
<path fill="#ff8888" stroke="black" stroke-dasharray="1,5" d="M208,-274C208,-274 195,-274 195,-274 189,-274 183,-268 183,-262 183,-262 183,-250 183,-250 183,-244 189,-238 195,-238 195,-238 208,-238 208,-238 214,-238 220,-244 220,-250 220,-250 220,-262 220,-262 220,-268 214,-274 208,-274"/>
<text text-anchor="start" x="191" y="-254.5" font-family="Helvetica,sans-Serif" font-size="10.00"> </text>
<text text-anchor="start" x="195" y="-254.5" font-family="Helvetica,sans-Serif" font-weight="bold" font-size="10.00">T1</text>
<text text-anchor="start" x="208" y="-254.5" font-family="Helvetica,sans-Serif" font-size="10.00"> </text>
</g>
<!-- t5 -->
<g id="node8" class="node"><title>t5</title>
<path fill="#ff8888" stroke="black" d="M208,-214C208,-214 195,-214 195,-214 189,-214 183,-208 183,-202 183,-202 183,-190 183,-190 183,-184 189,-178 195,-178 195,-178 208,-178 208,-178 214,-178 220,-184 220,-190 220,-190 220,-202 220,-202 220,-208 214,-214 208,-214"/>
<text text-anchor="start" x="191" y="-194.5" font-family="Helvetica,sans-Serif" font-size="10.00"> </text>
<text text-anchor="start" x="195" y="-194.5" font-family="Helvetica,sans-Serif" font-weight="bold" font-size="10.00">T5</text>
<text text-anchor="start" x="208" y="-194.5" font-family="Helvetica,sans-Serif" font-size="10.00"> </text>
</g>
<!-- t1&#45;&gt;t5 -->
<!-- t2_setup -->
<g id="node4" class="node"><title>t2_setup</title>
<path fill="#66aaff" stroke="black" stroke-dasharray="1,5" d="M146,-326C146,-326 133,-326 133,-326 127,-326 121,-320 121,-314 121,-314 121,-302 121,-302 121,-296 127,-290 133,-290 133,-290 146,-290 146,-290 152,-290 158,-296 158,-302 158,-302 158,-314 158,-314 158,-320 152,-326 146,-326"/>
<text text-anchor="start" x="129" y="-306.5" font-family="Helvetica,sans-Serif" font-size="10.00"> </text>
<text text-anchor="start" x="133" y="-306.5" font-family="Helvetica,sans-Serif" font-weight="bold" font-size="10.00">T2</text>
<text text-anchor="start" x="146" y="-306.5" font-family="Helvetica,sans-Serif" font-size="10.00"> </text>
</g>
<!-- t2 -->
<g id="node5" class="node"><title>t2</title>
<path fill="#66aaff" stroke="black" d="M146,-274C146,-274 133,-274 133,-274 127,-274 121,-268 121,-262 121,-262 121,-250 121,-250 121,-244 127,-238 133,-238 133,-238 146,-238 146,-238 152,-238 158,-244 158,-250 158,-250 158,-262 158,-262 158,-268 152,-274 146,-274"/>
<text text-anchor="start" x="129" y="-254.5" font-family="Helvetica,sans-Serif" font-size="10.00"> </text>
<text text-anchor="start" x="133" y="-254.5" font-family="Helvetica,sans-Serif" font-weight="bold" font-size="10.00">T2</text>
<text text-anchor="start" x="146" y="-254.5" font-family="Helvetica,sans-Serif" font-size="10.00"> </text>
</g>
<!-- t2_setup&#45;&gt;t2 -->
<g id="edge2" class="edge"><title>t2_setup&#45;&gt;t2</title>
<path fill="none" stroke="black" d="M139.5,-289.793C139.5,-288.045 139.5,-286.241 139.5,-284.419"/>
<polygon fill="black" stroke="black" points="143,-284.069 139.5,-274.07 136,-284.07 143,-284.069"/>
</g>
<!-- t4 -->
<g id="node7" class="node"><title>t4</title>
<path fill="#66ff88" stroke="black" stroke-dasharray="1,5" d="M46,-274C46,-274 33,-274 33,-274 27,-274 21,-268 21,-262 21,-262 21,-250 21,-250 21,-244 27,-238 33,-238 33,-238 46,-238 46,-238 52,-238 58,-244 58,-250 58,-250 58,-262 58,-262 58,-268 52,-274 46,-274"/>
<text text-anchor="start" x="29" y="-254.5" font-family="Helvetica,sans-Serif" font-size="10.00"> </text>
<text text-anchor="start" x="33" y="-254.5" font-family="Helvetica,sans-Serif" font-weight="bold" font-size="10.00">T4</text>
<text text-anchor="start" x="46" y="-254.5" font-family="Helvetica,sans-Serif" font-size="10.00"> </text>
</g>
<!-- t2&#45;&gt;t4 -->
<!-- t2&#45;&gt;t5 -->
<g id="edge3" class="edge"><title>t2&#45;&gt;t5</title>
<path fill="none" stroke="black" stroke-width="2" stroke-dasharray="5,2" d="M157.767,-237.912C162.892,-233.117 168.58,-227.796 174.113,-222.62"/>
<polygon fill="none" stroke="black" stroke-width="2" points="174.386,-222.364 176.035,-215.344 183.15,-214.166 181.501,-221.187 174.386,-222.364"/>
</g>
<!-- t8 -->
<g id="node11" class="node"><title>t8</title>
<path fill="#66aaff" stroke="black" d="M146,-214C146,-214 133,-214 133,-214 127,-214 121,-208 121,-202 121,-202 121,-190 121,-190 121,-184 127,-178 133,-178 133,-178 146,-178 146,-178 152,-178 158,-184 158,-190 158,-190 158,-202 158,-202 158,-208 152,-214 146,-214"/>
<text text-anchor="start" x="129" y="-194.5" font-family="Helvetica,sans-Serif" font-size="10.00"> </text>
<text text-anchor="start" x="133" y="-194.5" font-family="Helvetica,sans-Serif" font-weight="bold" font-size="10.00">T8</text>
<text text-anchor="start" x="146" y="-194.5" font-family="Helvetica,sans-Serif" font-size="10.00"> </text>
</g>
<!-- t2&#45;&gt;t8 -->
<!-- t3 -->
<g id="node6" class="node"><title>t3</title>
<path fill="#66aaff" stroke="black" stroke-dasharray="1,5" d="M108,-326C108,-326 95,-326 95,-326 89,-326 83,-320 83,-314 83,-314 83,-302 83,-302 83,-296 89,-290 95,-290 95,-290 108,-290 108,-290 114,-290 120,-296 120,-302 120,-302 120,-314 120,-314 120,-320 114,-326 108,-326"/>
<text text-anchor="start" x="91" y="-306.5" font-family="Helvetica,sans-Serif" font-size="10.00"> </text>
<text text-anchor="start" x="95" y="-306.5" font-family="Helvetica,sans-Serif" font-weight="bold" font-size="10.00">T3</text>
<text text-anchor="start" x="108" y="-306.5" font-family="Helvetica,sans-Serif" font-size="10.00"> </text>
</g>
<!-- t3&#45;&gt;t4 -->
<g id="edge4" class="edge"><title>t3&#45;&gt;t4</title>
<path fill="none" stroke="black" d="M82.898,-291.998C77.6256,-287.746 71.7805,-283.033 66.1327,-278.478"/>
<polygon fill="black" stroke="black" points="68.0702,-275.544 58.0889,-271.991 63.6759,-280.993 68.0702,-275.544"/>
</g>
<!-- t4&#45;&gt;t5 -->
<!-- t4&#45;&gt;t10 -->
<!-- t6 -->
<g id="node9" class="node"><title>t6</title>
<path fill="#ff8888" stroke="black" d="M208,-164C208,-164 195,-164 195,-164 189,-164 183,-158 183,-152 183,-152 183,-140 183,-140 183,-134 189,-128 195,-128 195,-128 208,-128 208,-128 214,-128 220,-134 220,-140 220,-140 220,-152 220,-152 220,-158 214,-164 208,-164"/>
<text text-anchor="start" x="191" y="-144.5" font-family="Helvetica,sans-Serif" font-size="10.00"> </text>
<text text-anchor="start" x="195" y="-144.5" font-family="Helvetica,sans-Serif" font-weight="bold" font-size="10.00">T6</text>
<text text-anchor="start" x="208" y="-144.5" font-family="Helvetica,sans-Serif" font-size="10.00"> </text>
</g>
<!-- t5&#45;&gt;t6 -->
<g id="edge5" class="edge"><title>t5&#45;&gt;t6</title>
<path fill="none" stroke="black" d="M201.5,-177.942C201.5,-176.669 201.5,-175.367 201.5,-174.053"/>
<polygon fill="black" stroke="black" points="205,-174.003 201.5,-164.003 198,-174.003 205,-174.003"/>
</g>
<!-- t7 -->
<g id="node10" class="node"><title>t7</title>
<path fill="#ff8888" stroke="black" d="M208,-104C208,-104 195,-104 195,-104 189,-104 183,-98 183,-92 183,-92 183,-80 183,-80 183,-74 189,-68 195,-68 195,-68 208,-68 208,-68 214,-68 220,-74 220,-80 220,-80 220,-92 220,-92 220,-98 214,-104 208,-104"/>
<text text-anchor="start" x="191" y="-84.5" font-family="Helvetica,sans-Serif" font-size="10.00"> </text>
<text text-anchor="start" x="195" y="-84.5" font-family="Helvetica,sans-Serif" font-weight="bold" font-size="10.00">T7</text>
<text text-anchor="start" x="208" y="-84.5" font-family="Helvetica,sans-Serif" font-size="10.00"> </text>
</g>
<!-- t6&#45;&gt;t7 -->
<g id="edge6" class="edge"><title>t6&#45;&gt;t7</title>
<path fill="none" stroke="black" d="M201.5,-127.912C201.5,-123.701 201.5,-119.086 201.5,-114.519"/>
<polygon fill="black" stroke="black" points="205,-114.166 201.5,-104.166 198,-114.167 205,-114.166"/>
</g>
<!-- t7&#45;&gt;t8 -->
<g id="edge7" class="edge"><title>t7&#45;&gt;t8</title>
<path fill="none" stroke="black" stroke-width="2" stroke-dasharray="5,2" d="M191.563,-104.085C188.621,-109.19 185.409,-114.81 182.5,-120 171.609,-139.431 169.657,-144.72 158.5,-164 157.852,-165.12 157.186,-166.259 156.509,-167.408"/>
<polygon fill="none" stroke="black" stroke-width="2" points="156.495,-167.431 156.828,-174.635 150.308,-177.713 149.974,-170.51 156.495,-167.431"/>
</g>
<!-- t9 -->
<g id="node12" class="node"><title>t9</title>
<path fill="#66aaff" stroke="black" d="M146,-164C146,-164 133,-164 133,-164 127,-164 121,-158 121,-152 121,-152 121,-140 121,-140 121,-134 127,-128 133,-128 133,-128 146,-128 146,-128 152,-128 158,-134 158,-140 158,-140 158,-152 158,-152 158,-158 152,-164 146,-164"/>
<text text-anchor="start" x="129" y="-144.5" font-family="Helvetica,sans-Serif" font-size="10.00"> </text>
<text text-anchor="start" x="133" y="-144.5" font-family="Helvetica,sans-Serif" font-weight="bold" font-size="10.00">T9</text>
<text text-anchor="start" x="146" y="-144.5" font-family="Helvetica,sans-Serif" font-size="10.00"> </text>
</g>
<!-- t8&#45;&gt;t9 -->
<g id="edge8" class="edge"><title>t8&#45;&gt;t9</title>
<path fill="none" stroke="black" d="M139.5,-177.942C139.5,-176.669 139.5,-175.367 139.5,-174.053"/>
<polygon fill="black" stroke="black" points="143,-174.003 139.5,-164.003 136,-174.003 143,-174.003"/>
</g>
<!-- t9&#45;&gt;t10 -->
<g id="edge9" class="edge"><title>t9&#45;&gt;t10</title>
<path fill="none" stroke="black" stroke-width="2" stroke-dasharray="5,2" d="M120.691,-134.091C107.084,-126.199 88.3459,-115.331 72.2995,-106.024"/>
<polygon fill="none" stroke="black" stroke-width="2" points="72.0969,-105.906 64.8998,-106.356 61.7165,-99.8856 68.9136,-99.4358 72.0969,-105.906"/>
</g>
<!-- t11 -->
<g id="node14" class="node"><title>t11</title>
<path fill="#66ff88" stroke="black" d="M49.5,-52C49.5,-52 29.5,-52 29.5,-52 23.5,-52 17.5,-46 17.5,-40 17.5,-40 17.5,-28 17.5,-28 17.5,-22 23.5,-16 29.5,-16 29.5,-16 49.5,-16 49.5,-16 55.5,-16 61.5,-22 61.5,-28 61.5,-28 61.5,-40 61.5,-40 61.5,-46 55.5,-52 49.5,-52"/>
<text text-anchor="start" x="25.5" y="-32.5" font-family="Helvetica,sans-Serif" font-size="10.00"> </text>
<text text-anchor="start" x="29.5" y="-32.5" font-family="Helvetica,sans-Serif" font-weight="bold" font-size="10.00">T11</text>
<text text-anchor="start" x="49.5" y="-32.5" font-family="Helvetica,sans-Serif" font-size="10.00"> </text>
</g>
<!-- t10&#45;&gt;t11 -->
<g id="edge10" class="edge"><title>t10&#45;&gt;t11</title>
<path fill="none" stroke="black" d="M39.5,-67.7928C39.5,-66.045 39.5,-64.2406 39.5,-62.419"/>
<polygon fill="black" stroke="black" points="43.0001,-62.0695 39.5,-52.0695 36.0001,-62.0695 43.0001,-62.0695"/>
</g>
</g>
</svg>
