<?xml version="1.0" encoding="UTF-8" standalone="no"?>
<!DOCTYPE svg PUBLIC "-//W3C//DTD SVG 1.1//EN"
 "http://www.w3.org/Graphics/SVG/1.1/DTD/svg11.dtd">
<!-- Generated by graphviz version 2.38.0 (20140413.2041)
 -->
<!-- Title: %3 Pages: 1 -->
<svg width="473pt" height="370pt"
 viewBox="0.00 0.00 473.00 370.00" xmlns="http://www.w3.org/2000/svg" xmlns:xlink="http://www.w3.org/1999/xlink">
<g id="graph0" class="graph" transform="scale(1 1) rotate(0) translate(4 366)">
<title>%3</title>
<polygon fill="white" stroke="none" points="-4,4 -4,-366 469,-366 469,4 -4,4"/>
<g id="clust1" class="cluster"><title>cluster_processing_0</title>
<polygon fill="none" stroke="black" stroke-width="0" points="166,-244 166,-354 329,-354 329,-244 166,-244"/>
</g>
<g id="clust2" class="cluster"><title>cluster_reporting_0</title>
<polygon fill="none" stroke="black" stroke-width="0" points="42,-244 42,-296 158,-296 158,-244 42,-244"/>
</g>
<g id="clust3" class="cluster"><title>cluster_web_1</title>
<polygon fill="none" stroke="black" stroke-width="0" points="341,-66 341,-236 457,-236 457,-66 341,-66"/>
</g>
<g id="clust4" class="cluster"><title>cluster_processing_1</title>
<polygon fill="none" stroke="black" stroke-width="0" points="235,-126 235,-236 333,-236 333,-126 235,-126"/>
</g>
<g id="clust5" class="cluster"><title>cluster_reporting_1</title>
<polygon fill="none" stroke="black" stroke-width="0" points="39,-8 39,-118 161,-118 161,-8 39,-8"/>
</g>
<!-- t0_setup -->
<g id="node1" class="node"><title>t0_setup</title>
<path fill="#ffcc44" stroke="black" stroke-dasharray="1,5" d="M146.5,-346C146.5,-346 77.5,-346 77.5,-346 71.5,-346 65.5,-340 65.5,-334 65.5,-334 65.5,-322 65.5,-322 65.5,-316 71.5,-310 77.5,-310 77.5,-310 146.5,-310 146.5,-310 152.5,-310 158.5,-316 158.5,-322 158.5,-322 158.5,-334 158.5,-334 158.5,-340 152.5,-346 146.5,-346"/>
<text text-anchor="start" x="76" y="-326.5" font-family="Helvetica,sans-Serif" font-weight="bold" font-size="10.00">T0</text>
<text text-anchor="start" x="93" y="-331" font-family="Helvetica,sans-Serif" font-size="10.00">Setup</text>
<text text-anchor="start" x="93" y="-320" font-family="Helvetica,sans-Serif" font-size="10.00">Int. Handler</text>
</g>
<!-- t0 -->
<g id="node2" class="node"><title>t0</title>
<path fill="#ffcc44" stroke="black" d="M86,-170C86,-170 12,-170 12,-170 6,-170 7.10543e-15,-164 7.10543e-15,-158 7.10543e-15,-158 7.10543e-15,-146 7.10543e-15,-146 7.10543e-15,-140 6,-134 12,-134 12,-134 86,-134 86,-134 92,-134 98,-140 98,-146 98,-146 98,-158 98,-158 98,-164 92,-170 86,-170"/>
<text text-anchor="start" x="10" y="-150.5" font-family="Helvetica,sans-Serif" font-weight="bold" font-size="10.00">T0</text>
<text text-anchor="start" x="27" y="-155" font-family="Helvetica,sans-Serif" font-size="10.00">Handle</text>
<text text-anchor="start" x="27" y="-144" font-family="Helvetica,sans-Serif" font-size="10.00">Interruptions</text>
</g>
<!-- t10 -->
<g id="node13" class="node"><title>t10</title>
<path fill="#66ff88" stroke="black" d="M141,-110C141,-110 59,-110 59,-110 53,-110 47,-104 47,-98 47,-98 47,-86 47,-86 47,-80 53,-74 59,-74 59,-74 141,-74 141,-74 147,-74 153,-80 153,-86 153,-86 153,-98 153,-98 153,-104 147,-110 141,-110"/>
<text text-anchor="start" x="57" y="-90.5" font-family="Helvetica,sans-Serif" font-weight="bold" font-size="10.00">T10</text>
<text text-anchor="start" x="81" y="-95" font-family="Helvetica,sans-Serif" font-size="10.00">Update</text>
<text text-anchor="start" x="81" y="-84" font-family="Helvetica,sans-Serif" font-size="10.00">Progress Bar</text>
</g>
<!-- t0&#45;&gt;t10 -->
<g id="edge1" class="edge"><title>t0&#45;&gt;t10</title>
<path fill="none" stroke="black" stroke-width="2" stroke-dasharray="5,2" d="M73.074,-133.804C80.7816,-128.299 88.894,-122.504 95.0125,-118.134"/>
<polygon fill="none" stroke="black" stroke-width="2" points="95.2352,-117.975 97.7926,-111.233 105,-111 102.443,-117.742 95.2352,-117.975"/>
</g>
<!-- t1 -->
<g id="node3" class="node"><title>t1</title>
<path fill="#ff8888" stroke="black" stroke-dasharray="1,5" d="M433,-288C433,-288 365,-288 365,-288 359,-288 353,-282 353,-276 353,-276 353,-264 353,-264 353,-258 359,-252 365,-252 365,-252 433,-252 433,-252 439,-252 445,-258 445,-264 445,-264 445,-276 445,-276 445,-282 439,-288 433,-288"/>
<text text-anchor="start" x="363" y="-268.5" font-family="Helvetica,sans-Serif" font-weight="bold" font-size="10.00">T1</text>
<text text-anchor="start" x="380" y="-273" font-family="Helvetica,sans-Serif" font-size="10.00">Read</text>
<text text-anchor="start" x="380" y="-262" font-family="Helvetica,sans-Serif" font-size="10.00">Credentials</text>
</g>
<!-- t5 -->
<g id="node8" class="node"><title>t5</title>
<path fill="#ff8888" stroke="black" d="M417.5,-228C417.5,-228 380.5,-228 380.5,-228 374.5,-228 368.5,-222 368.5,-216 368.5,-216 368.5,-204 368.5,-204 368.5,-198 374.5,-192 380.5,-192 380.5,-192 417.5,-192 417.5,-192 423.5,-192 429.5,-198 429.5,-204 429.5,-204 429.5,-216 429.5,-216 429.5,-222 423.5,-228 417.5,-228"/>
<text text-anchor="start" x="379" y="-208.5" font-family="Helvetica,sans-Serif" font-weight="bold" font-size="10.00">T5</text>
<text text-anchor="start" x="396" y="-213" font-family="Helvetica,sans-Serif" font-size="10.00">Rate</text>
<text text-anchor="start" x="396" y="-202" font-family="Helvetica,sans-Serif" font-size="10.00">Limit</text>
</g>
<!-- t1&#45;&gt;t5 -->
<!-- t2_setup -->
<g id="node4" class="node"><title>t2_setup</title>
<path fill="#66aaff" stroke="black" stroke-dasharray="1,5" d="M309,-346C309,-346 259,-346 259,-346 253,-346 247,-340 247,-334 247,-334 247,-322 247,-322 247,-316 253,-310 259,-310 259,-310 309,-310 309,-310 315,-310 321,-316 321,-322 321,-322 321,-334 321,-334 321,-340 315,-346 309,-346"/>
<text text-anchor="start" x="257" y="-326.5" font-family="Helvetica,sans-Serif" font-weight="bold" font-size="10.00">T2</text>
<text text-anchor="start" x="274" y="-331" font-family="Helvetica,sans-Serif" font-size="10.00">Setup</text>
<text text-anchor="start" x="274" y="-320" font-family="Helvetica,sans-Serif" font-size="10.00">Stream</text>
</g>
<!-- t2 -->
<g id="node5" class="node"><title>t2</title>
<path fill="#66aaff" stroke="black" d="M309.5,-288C309.5,-288 258.5,-288 258.5,-288 252.5,-288 246.5,-282 246.5,-276 246.5,-276 246.5,-264 246.5,-264 246.5,-258 252.5,-252 258.5,-252 258.5,-252 309.5,-252 309.5,-252 315.5,-252 321.5,-258 321.5,-264 321.5,-264 321.5,-276 321.5,-276 321.5,-282 315.5,-288 309.5,-288"/>
<text text-anchor="start" x="257" y="-268.5" font-family="Helvetica,sans-Serif" font-weight="bold" font-size="10.00">T2</text>
<text text-anchor="start" x="274" y="-273" font-family="Helvetica,sans-Serif" font-size="10.00">Stream</text>
<text text-anchor="start" x="274" y="-262" font-family="Helvetica,sans-Serif" font-size="10.00">Records</text>
</g>
<!-- t2_setup&#45;&gt;t2 -->
<g id="edge2" class="edge"><title>t2_setup&#45;&gt;t2</title>
<path fill="none" stroke="black" d="M284,-309.894C284,-306.203 284,-302.213 284,-298.243"/>
<polygon fill="black" stroke="black" points="287.5,-298.001 284,-288.001 280.5,-298.001 287.5,-298.001"/>
</g>
<!-- t4 -->
<g id="node7" class="node"><title>t4</title>
<path fill="#66ff88" stroke="black" stroke-dasharray="1,5" d="M137.5,-288C137.5,-288 62.5,-288 62.5,-288 56.5,-288 50.5,-282 50.5,-276 50.5,-276 50.5,-264 50.5,-264 50.5,-258 56.5,-252 62.5,-252 62.5,-252 137.5,-252 137.5,-252 143.5,-252 149.5,-258 149.5,-264 149.5,-264 149.5,-276 149.5,-276 149.5,-282 143.5,-288 137.5,-288"/>
<text text-anchor="start" x="61" y="-268.5" font-family="Helvetica,sans-Serif" font-weight="bold" font-size="10.00">T4</text>
<text text-anchor="start" x="78" y="-273" font-family="Helvetica,sans-Serif" font-size="10.00">Start</text>
<text text-anchor="start" x="78" y="-262" font-family="Helvetica,sans-Serif" font-size="10.00">Progress Bar</text>
</g>
<!-- t2&#45;&gt;t4 -->
<!-- t2&#45;&gt;t5 -->
<g id="edge3" class="edge"><title>t2&#45;&gt;t5</title>
<path fill="none" stroke="black" stroke-width="2" stroke-dasharray="5,2" d="M317.882,-251.912C330.283,-245.657 344.458,-238.508 357.452,-231.955"/>
<polygon fill="none" stroke="black" stroke-width="2" points="357.779,-231.79 361.335,-225.516 368.493,-226.386 364.938,-232.659 357.779,-231.79"/>
</g>
<!-- t8 -->
<g id="node11" class="node"><title>t8</title>
<path fill="#66aaff" stroke="black" d="M313,-228C313,-228 255,-228 255,-228 249,-228 243,-222 243,-216 243,-216 243,-204 243,-204 243,-198 249,-192 255,-192 255,-192 313,-192 313,-192 319,-192 325,-198 325,-204 325,-204 325,-216 325,-216 325,-222 319,-228 313,-228"/>
<text text-anchor="start" x="253" y="-208.5" font-family="Helvetica,sans-Serif" font-weight="bold" font-size="10.00">T8</text>
<text text-anchor="start" x="270" y="-213" font-family="Helvetica,sans-Serif" font-size="10.00">Augment</text>
<text text-anchor="start" x="270" y="-202" font-family="Helvetica,sans-Serif" font-size="10.00">Record</text>
</g>
<!-- t2&#45;&gt;t8 -->
<!-- t3 -->
<g id="node6" class="node"><title>t3</title>
<path fill="#66aaff" stroke="black" stroke-dasharray="1,5" d="M233.5,-346C233.5,-346 186.5,-346 186.5,-346 180.5,-346 174.5,-340 174.5,-334 174.5,-334 174.5,-322 174.5,-322 174.5,-316 180.5,-310 186.5,-310 186.5,-310 233.5,-310 233.5,-310 239.5,-310 245.5,-316 245.5,-322 245.5,-322 245.5,-334 245.5,-334 245.5,-340 239.5,-346 233.5,-346"/>
<text text-anchor="start" x="185" y="-326.5" font-family="Helvetica,sans-Serif" font-weight="bold" font-size="10.00">T3</text>
<text text-anchor="start" x="202" y="-331" font-family="Helvetica,sans-Serif" font-size="10.00">Read</text>
<text text-anchor="start" x="202" y="-320" font-family="Helvetica,sans-Serif" font-size="10.00">Output</text>
</g>
<!-- t3&#45;&gt;t4 -->
<g id="edge4" class="edge"><title>t3&#45;&gt;t4</title>
<path fill="none" stroke="black" d="M176.399,-309.894C165.737,-304.466 153.804,-298.391 142.596,-292.685"/>
<polygon fill="black" stroke="black" points="143.895,-289.419 133.396,-288.001 140.719,-295.657 143.895,-289.419"/>
</g>
<!-- t4&#45;&gt;t5 -->
<!-- t4&#45;&gt;t10 -->
<!-- t6 -->
<g id="node9" class="node"><title>t6</title>
<path fill="#ff8888" stroke="black" d="M436.5,-170C436.5,-170 361.5,-170 361.5,-170 355.5,-170 349.5,-164 349.5,-158 349.5,-158 349.5,-146 349.5,-146 349.5,-140 355.5,-134 361.5,-134 361.5,-134 436.5,-134 436.5,-134 442.5,-134 448.5,-140 448.5,-146 448.5,-146 448.5,-158 448.5,-158 448.5,-164 442.5,-170 436.5,-170"/>
<text text-anchor="start" x="360" y="-150" font-family="Helvetica,sans-Serif" font-weight="bold" font-size="10.00">T6</text>
<text text-anchor="start" x="377" y="-149" font-family="Helvetica,sans-Serif" font-size="10.00">Authenticate</text>
</g>
<!-- t5&#45;&gt;t6 -->
<g id="edge5" class="edge"><title>t5&#45;&gt;t6</title>
<path fill="none" stroke="black" d="M399,-191.894C399,-188.203 399,-184.213 399,-180.243"/>
<polygon fill="black" stroke="black" points="402.5,-180.001 399,-170.001 395.5,-180.001 402.5,-180.001"/>
</g>
<!-- t7 -->
<g id="node10" class="node"><title>t7</title>
<path fill="#ff8888" stroke="black" d="M433,-110C433,-110 365,-110 365,-110 359,-110 353,-104 353,-98 353,-98 353,-86 353,-86 353,-80 359,-74 365,-74 365,-74 433,-74 433,-74 439,-74 445,-80 445,-86 445,-86 445,-98 445,-98 445,-104 439,-110 433,-110"/>
<text text-anchor="start" x="363" y="-90.5" font-family="Helvetica,sans-Serif" font-weight="bold" font-size="10.00">T7</text>
<text text-anchor="start" x="380" y="-95" font-family="Helvetica,sans-Serif" font-size="10.00">Retrieve</text>
<text text-anchor="start" x="380" y="-84" font-family="Helvetica,sans-Serif" font-size="10.00">Information</text>
</g>
<!-- t6&#45;&gt;t7 -->
<g id="edge6" class="edge"><title>t6&#45;&gt;t7</title>
<path fill="none" stroke="black" d="M399,-133.912C399,-129.701 399,-125.086 399,-120.519"/>
<polygon fill="black" stroke="black" points="402.5,-120.166 399,-110.166 395.5,-120.167 402.5,-120.166"/>
</g>
<!-- t7&#45;&gt;t8 -->
<g id="edge7" class="edge"><title>t7&#45;&gt;t8</title>
<path fill="none" stroke="black" stroke-width="2" stroke-dasharray="5,2" d="M368.937,-110.001C361.97,-114.685 354.882,-120.115 349,-126 332.444,-142.566 334.435,-151.556 320,-170 316.742,-174.163 313.135,-178.419 309.501,-182.518"/>
<polygon fill="none" stroke="black" stroke-width="2" points="309.222,-182.823 308.122,-189.95 301.12,-191.675 302.22,-184.549 309.222,-182.823"/>
</g>
<!-- t9 -->
<g id="node12" class="node"><title>t9</title>
<path fill="#66aaff" stroke="black" d="M307.5,-170C307.5,-170 260.5,-170 260.5,-170 254.5,-170 248.5,-164 248.5,-158 248.5,-158 248.5,-146 248.5,-146 248.5,-140 254.5,-134 260.5,-134 260.5,-134 307.5,-134 307.5,-134 313.5,-134 319.5,-140 319.5,-146 319.5,-146 319.5,-158 319.5,-158 319.5,-164 313.5,-170 307.5,-170"/>
<text text-anchor="start" x="259" y="-150.5" font-family="Helvetica,sans-Serif" font-weight="bold" font-size="10.00">T9</text>
<text text-anchor="start" x="276" y="-155" font-family="Helvetica,sans-Serif" font-size="10.00">Output</text>
<text text-anchor="start" x="276" y="-144" font-family="Helvetica,sans-Serif" font-size="10.00">Record</text>
</g>
<!-- t8&#45;&gt;t9 -->
<g id="edge8" class="edge"><title>t8&#45;&gt;t9</title>
<path fill="none" stroke="black" d="M284,-191.894C284,-188.203 284,-184.213 284,-180.243"/>
<polygon fill="black" stroke="black" points="287.5,-180.001 284,-170.001 280.5,-180.001 287.5,-180.001"/>
</g>
<!-- t9&#45;&gt;t10 -->
<g id="edge9" class="edge"><title>t9&#45;&gt;t10</title>
<path fill="none" stroke="black" stroke-width="2" stroke-dasharray="5,2" d="M248.207,-143.002C207.601,-133.928 143.59,-119.623 117.098,-113.703"/>
<polygon fill="none" stroke="black" stroke-width="2" points="116.711,-113.617 109.983,-116.212 105,-111 111.728,-108.405 116.711,-113.617"/>
</g>
<!-- t11 -->
<g id="node14" class="node"><title>t11</title>
<path fill="#66ff88" stroke="black" d="M127,-52C127,-52 73,-52 73,-52 67,-52 61,-46 61,-40 61,-40 61,-28 61,-28 61,-22 67,-16 73,-16 73,-16 127,-16 127,-16 133,-16 139,-22 139,-28 139,-28 139,-40 139,-40 139,-46 133,-52 127,-52"/>
<text text-anchor="start" x="71" y="-32.5" font-family="Helvetica,sans-Serif" font-weight="bold" font-size="10.00">T11</text>
<text text-anchor="start" x="95" y="-37" font-family="Helvetica,sans-Serif" font-size="10.00">Output</text>
<text text-anchor="start" x="95" y="-26" font-family="Helvetica,sans-Serif" font-size="10.00">Report</text>
</g>
<!-- t10&#45;&gt;t11 -->
<g id="edge10" class="edge"><title>t10&#45;&gt;t11</title>
<path fill="none" stroke="black" d="M100,-73.8939C100,-70.2029 100,-66.2128 100,-62.2429"/>
<polygon fill="black" stroke="black" points="103.5,-62.0013 100,-52.0014 96.5001,-62.0014 103.5,-62.0013"/>
</g>
</g>
</svg>
